<?xml version="1.0" encoding="utf-8"?>
<!-- Generator: Adobe Illustrator 19.0.0, SVG Export Plug-In . SVG Version: 6.00 Build 0)  -->
<svg version="1.1" id="Layer_1" xmlns="http://www.w3.org/2000/svg" xmlns:xlink="http://www.w3.org/1999/xlink" x="0px" y="0px"
	 viewBox="0 0 46 42" enable-background="new 0 0 46 42" xml:space="preserve">
<g id="Shape_6">
	<g id="XMLID_45_">
		<path id="XMLID_51_" fill-rule="evenodd" clip-rule="evenodd" fill="#AAAAAA" d="M42,10h-6.3L32,6H18v6h-6v6H6v20c0,2.2,1.8,4,4,4
			h32c2.2,0,4-1.8,4-4V14C46,11.8,44.2,10,42,10z M26,36c-5.5,0-10-4.5-10-10c0-5.5,4.5-10,10-10s10,4.5,10,10
			C36,31.5,31.5,36,26,36z M6,16h4v-6h6V6h-6V0H6v6H0v4h6V16z M26,19.6c-3.5,0-6.4,2.9-6.4,6.4c0,3.5,2.9,6.4,6.4,6.4
			s6.4-2.9,6.4-6.4C32.4,22.5,29.5,19.6,26,19.6z"/>
	</g>
</g>
</svg>
